
<svg xmlns="http://www.w3.org/2000/svg" height="24px" viewBox="0 -960 960 960" width="24px" fill="#008d88"><path d="M798-120q-125 0-247-54.5T329-329Q229-429 174.5-551T120-798q0-18 12-30t30-12h162q14 0 25 9.5t13 22.5l26 140q2 16-1 27t-11 19l-97 98q20 37 47.5 71.5T387-386q31 31 65 57.5t72 48.5l94-94q9-9 23.5-13.5T670-390l138 28q14 4 23 14.5t9 23.5v162q0 18-12 30t-30 12ZM241-600l66-66-17-94h-89q5 41 14 81t26 79Zm358 358q39 17 79.5 27t81.5 13v-88l-94-19-67 67ZM241-600Zm358 358Z"/></svg>
<svg xmlns="http://www.w3.org/2000/svg" height="48" viewBox="0 -960 960 960" width="48"><path d="M336-510h50v-240H273v50h63v190Zm190 0h90q14 0 27-13t13-27v-160q0-14-13-27t-27-13h-90q-14 0-27 13t-13 27v160q0 14 13 27t27 13Zm10-50v-140h70v140h-70ZM233-210h50v-190h53v127h50v-127h60v190h50v-200q0-14-13-27t-27-13H273q-14 0-27 13t-13 27v200Zm323 0h50v-63h80q14 0 27-13t13-27v-97q0-14-13-27t-27-13H556v240Zm50-113v-77h70v77h-70ZM180-120q-24 0-42-18t-18-42v-600q0-24 18-42t42-18h600q24 0 42 18t18 42v600q0 24-18 42t-42 18H180Zm0-60h600v-600H180v600Zm0-600v600-600Z"/></svg>
